<svg width="189" height="56" viewBox="0 0 189 56" fill="none" xmlns="http://www.w3.org/2000/svg">
<path d="M23.6923 2.48705C26.3579 0.948057 29.6421 0.948057 32.3077 2.48705L47.941 11.513C50.6066 13.0519 52.2487 15.8961 52.2487 18.9741V37.0259C52.2487 40.1039 50.6066 42.9481 47.941 44.487L32.3077 53.513C29.6421 55.0519 26.3579 55.0519 23.6923 53.513L8.05898 44.487C5.39337 42.9481 3.75129 40.1039 3.75129 37.0259V18.9741C3.75129 15.8961 5.39337 13.0519 8.05898 11.513L23.6923 2.48705Z" fill="white"/>
<path fill-rule="evenodd" clip-rule="evenodd" d="M29.8681 15.1434C30.4658 15.3319 30.8723 15.8862 30.8723 16.5129V23.6924L36.6159 23.6924C37.1513 23.6924 37.6422 23.9903 37.8895 24.4652C38.1368 24.9401 38.0993 25.5131 37.7922 25.9517L27.7409 40.3107C27.3815 40.8241 26.7307 41.0452 26.1329 40.8567C25.5352 40.6683 25.1287 40.114 25.1287 39.4873L25.1287 32.3078H19.3851C18.8497 32.3078 18.3588 32.0099 18.1115 31.535C17.8643 31.0601 17.9017 30.4871 18.2088 30.0484L28.2601 15.6895C28.6195 15.176 29.2704 14.955 29.8681 15.1434Z" fill="#FF7353"/>
<path d="M85.0114 23.6173C84.9264 22.6825 84.5482 21.9559 83.8768 21.4375C83.214 20.9105 82.2664 20.6471 81.0341 20.6471C80.2183 20.6471 79.5384 20.7533 78.9945 20.9658C78.4506 21.1782 78.0427 21.4714 77.7707 21.8454C77.4988 22.2108 77.3585 22.6315 77.35 23.1074C77.333 23.4983 77.4095 23.8425 77.5795 24.14C77.758 24.4374 78.0129 24.7009 78.3444 24.9303C78.6843 25.1513 79.0922 25.3467 79.5681 25.5167C80.044 25.6867 80.5794 25.8354 81.1743 25.9629L83.4179 26.4728C84.7097 26.7532 85.8485 27.1272 86.8343 27.5946C87.8286 28.062 88.6615 28.6186 89.3328 29.2645C90.0127 29.9104 90.5269 30.654 90.8753 31.4954C91.2238 32.3367 91.4022 33.28 91.4107 34.3253C91.4022 35.974 90.9858 37.389 90.1614 38.5703C89.3371 39.7516 88.1516 40.6567 86.6048 41.2856C85.0666 41.9145 83.2097 42.2289 81.0341 42.2289C78.85 42.2289 76.9464 41.9017 75.3232 41.2473C73.7 40.5929 72.4379 39.5986 71.5371 38.2644C70.6363 36.9301 70.1731 35.2432 70.1476 33.2036H76.19C76.241 34.0449 76.4662 34.746 76.8656 35.3069C77.2651 35.8678 77.8132 36.2927 78.5101 36.5817C79.2154 36.8706 80.0313 37.0151 80.9576 37.0151C81.8075 37.0151 82.5298 36.9004 83.1247 36.6709C83.7281 36.4415 84.1913 36.1228 84.5142 35.7148C84.8372 35.3069 85.0029 34.8395 85.0114 34.3126C85.0029 33.8197 84.8499 33.399 84.5525 33.0506C84.255 32.6936 83.7961 32.3877 83.1757 32.1327C82.5638 31.8693 81.782 31.6271 80.8302 31.4061L78.1022 30.7687C75.8416 30.2503 74.0611 29.4132 72.7609 28.2575C71.4606 27.0932 70.8147 25.521 70.8232 23.5408C70.8147 21.9261 71.2482 20.5111 72.1235 19.2958C72.9988 18.0806 74.2099 17.133 75.7566 16.4531C77.3033 15.7732 79.0667 15.4333 81.0469 15.4333C83.0695 15.4333 84.8244 15.7775 86.3116 16.4659C87.8074 17.1457 88.9674 18.1018 89.7918 19.3341C90.6161 20.5664 91.0368 21.9941 91.0538 23.6173H85.0114ZM103.391 42.2671C101.343 42.2671 99.5757 41.8635 98.0885 41.0561C96.6097 40.2403 95.4709 39.0802 94.6721 37.576C93.8817 36.0633 93.4865 34.2659 93.4865 32.1837C93.4865 30.1611 93.886 28.3934 94.6848 26.8807C95.4837 25.3595 96.6097 24.1782 98.063 23.3369C99.5162 22.487 101.229 22.0621 103.2 22.0621C104.594 22.0621 105.869 22.2788 107.025 22.7122C108.18 23.1456 109.179 23.7873 110.02 24.6371C110.862 25.487 111.516 26.5365 111.983 27.7858C112.451 29.0266 112.685 30.4501 112.685 32.0563V33.6115H95.6664V29.9911H106.884C106.876 29.3283 106.719 28.7376 106.413 28.2192C106.107 27.7008 105.686 27.2971 105.151 27.0082C104.624 26.7107 104.016 26.562 103.328 26.562C102.631 26.562 102.006 26.7192 101.454 27.0337C100.901 27.3396 100.464 27.7603 100.141 28.2957C99.8179 28.8226 99.6479 29.4217 99.6309 30.0931V33.7772C99.6309 34.576 99.7881 35.2772 100.103 35.8806C100.417 36.4755 100.863 36.9386 101.441 37.2701C102.019 37.6015 102.707 37.7672 103.506 37.7672C104.059 37.7672 104.56 37.6907 105.01 37.5378C105.461 37.3848 105.848 37.1596 106.17 36.8621C106.493 36.5647 106.736 36.1993 106.897 35.7658L112.621 35.9316C112.383 37.2148 111.86 38.3324 111.053 39.2842C110.254 40.2275 109.204 40.9626 107.904 41.4895C106.604 42.0079 105.1 42.2671 103.391 42.2671ZM121.743 30.7305V41.8975H115.509V22.317H121.437V25.9119H121.654C122.087 24.7136 122.826 23.7745 123.872 23.0946C124.917 22.4063 126.162 22.0621 127.607 22.0621C128.984 22.0621 130.178 22.3723 131.189 22.9927C132.209 23.6046 132.999 24.4629 133.56 25.5677C134.129 26.664 134.41 27.9473 134.401 29.4175V41.8975H128.168V30.6413C128.176 29.5535 127.9 28.7036 127.339 28.0917C126.787 27.4798 126.018 27.1739 125.032 27.1739C124.377 27.1739 123.8 27.3184 123.298 27.6073C122.805 27.8878 122.423 28.2914 122.151 28.8184C121.887 29.3453 121.751 29.9826 121.743 30.7305ZM154.996 28.2957L149.273 28.4487C149.213 28.0407 149.052 27.6796 148.788 27.3651C148.525 27.0422 148.181 26.7915 147.756 26.613C147.339 26.426 146.855 26.3326 146.302 26.3326C145.58 26.3326 144.964 26.477 144.454 26.766C143.953 27.0549 143.706 27.4459 143.715 27.9388C143.706 28.3212 143.859 28.6526 144.174 28.9331C144.497 29.2135 145.07 29.4387 145.895 29.6087L149.668 30.3226C151.622 30.6965 153.076 31.3169 154.028 32.1837C154.988 33.0506 155.472 34.1979 155.481 35.6256C155.472 36.9684 155.073 38.1369 154.282 39.1312C153.501 40.1255 152.43 40.8989 151.07 41.4513C149.71 41.9952 148.155 42.2671 146.404 42.2671C143.608 42.2671 141.403 41.6935 139.788 40.5462C138.182 39.3904 137.264 37.8437 137.035 35.9061L143.192 35.7531C143.328 36.467 143.681 37.0109 144.25 37.3848C144.819 37.7587 145.546 37.9457 146.43 37.9457C147.229 37.9457 147.879 37.797 148.38 37.4995C148.882 37.2021 149.137 36.8069 149.145 36.314C149.137 35.8721 148.941 35.5194 148.559 35.2559C148.176 34.984 147.577 34.7715 146.761 34.6185L143.345 33.9684C141.382 33.6115 139.92 32.9528 138.96 31.9925C137.999 31.0237 137.524 29.7914 137.532 28.2957C137.524 26.9869 137.872 25.8694 138.577 24.9431C139.283 24.0082 140.286 23.2944 141.586 22.8015C142.886 22.3085 144.42 22.0621 146.188 22.0621C148.839 22.0621 150.93 22.6187 152.46 23.732C153.989 24.8368 154.835 26.3581 154.996 28.2957ZM167.344 42.2671C165.295 42.2671 163.528 41.8635 162.041 41.0561C160.562 40.2403 159.423 39.0802 158.624 37.576C157.834 36.0633 157.439 34.2659 157.439 32.1837C157.439 30.1611 157.838 28.3934 158.637 26.8807C159.436 25.3595 160.562 24.1782 162.015 23.3369C163.468 22.487 165.181 22.0621 167.152 22.0621C168.546 22.0621 169.821 22.2788 170.977 22.7122C172.132 23.1456 173.131 23.7873 173.972 24.6371C174.814 25.487 175.468 26.5365 175.936 27.7858C176.403 29.0266 176.637 30.4501 176.637 32.0563V33.6115H159.619V29.9911H170.836C170.828 29.3283 170.671 28.7376 170.365 28.2192C170.059 27.7008 169.638 27.2971 169.103 27.0082C168.576 26.7107 167.968 26.562 167.28 26.562C166.583 26.562 165.958 26.7192 165.406 27.0337C164.854 27.3396 164.416 27.7603 164.093 28.2957C163.77 28.8226 163.6 29.4217 163.583 30.0931V33.7772C163.583 34.576 163.74 35.2772 164.055 35.8806C164.369 36.4755 164.815 36.9386 165.393 37.2701C165.971 37.6015 166.659 37.7672 167.458 37.7672C168.011 37.7672 168.512 37.6907 168.963 37.5378C169.413 37.3848 169.8 37.1596 170.123 36.8621C170.446 36.5647 170.688 36.1993 170.849 35.7658L176.573 35.9316C176.335 37.2148 175.812 38.3324 175.005 39.2842C174.206 40.2275 173.157 40.9626 171.856 41.4895C170.556 42.0079 169.052 42.2671 167.344 42.2671ZM179.461 41.8975V22.317H185.695V41.8975H179.461ZM182.585 20.0352C181.709 20.0352 180.957 19.7463 180.328 19.1684C179.699 18.582 179.385 17.8766 179.385 17.0523C179.385 16.2364 179.699 15.5395 180.328 14.9616C180.957 14.3752 181.709 14.082 182.585 14.082C183.468 14.082 184.221 14.3752 184.841 14.9616C185.47 15.5395 185.784 16.2364 185.784 17.0523C185.784 17.8766 185.47 18.582 184.841 19.1684C184.221 19.7463 183.468 20.0352 182.585 20.0352Z" fill="white"/>
</svg>
